<?xml version="1.0" encoding="UTF-8"?>
<svg version="1.1" xmlns="http://www.w3.org/2000/svg" width="150" height="150">
<path d="M0 0 C16.89970156 10.06989113 29.01518213 26.01260329 34 45 C34 46.32 34 47.64 34 49 C31.15234375 48.40234375 31.15234375 48.40234375 28 47 C26.56640625 44.12890625 26.56640625 44.12890625 25.5625 40.5625 C21.27338583 26.9348622 11.77089679 13.96441809 -1 7 C-5.09692126 6.90442641 -7.33462591 8.78812409 -10.30053711 11.49023438 C-10.79948486 11.96783203 -11.29843262 12.44542969 -11.8125 12.9375 C-12.33658447 13.43185547 -12.86066895 13.92621094 -13.40063477 14.43554688 C-26.41401864 26.93989365 -33.29519308 40.51789058 -34.0234375 58.734375 C-34.22470171 75.14858962 -27.24387267 89.20189086 -16.17578125 100.93359375 C-14.47462228 102.64951332 -12.74538448 104.32924003 -11 106 C-10.01836382 106.97669091 -9.03891235 107.95558674 -8.0625 108.9375 C-7.381875 109.618125 -6.70125 110.29875 -6 111 C-8.97 111.99 -8.97 111.99 -12 113 C-19.39265716 106.61488068 -25.95225122 100.48076071 -31 92 C-31.45890625 91.24589844 -31.9178125 90.49179688 -32.390625 89.71484375 C-40.61082244 74.88382488 -42.01782026 57.83946575 -38.1015625 41.515625 C-34.81263277 31.01904074 -29.33588704 22.12500636 -22 14 C-21.43539062 13.36578125 -20.87078125 12.7315625 -20.2890625 12.078125 C-7.66018578 -1.32152823 -7.66018578 -1.32152823 0 0 Z " fill="#FFFFFF" transform="translate(77,11)"/>
<path d="M0 0 C0.46821994 2.75079217 0.63852734 4.32616678 0 7 C-1.5 8.90625 -1.5 8.90625 -3.5 10.9375 C-14.66130098 22.57459356 -18.67191457 38.3285919 -20 54 C-19.45472656 54.18175781 -18.90945312 54.36351562 -18.34765625 54.55078125 C-17.21650391 54.92783203 -17.21650391 54.92783203 -16.0625 55.3125 C-15.24394531 55.58449219 -14.42539062 55.85648438 -13.58203125 56.13671875 C-11.9106444 56.69553342 -10.24121728 57.26025881 -8.57421875 57.83203125 C-7.80722656 58.09371094 -7.04023438 58.35539062 -6.25 58.625 C-5.55390625 58.86476562 -4.8578125 59.10453125 -4.140625 59.3515625 C11.16166551 63.98692787 27.66090667 61.32579667 41.6875 54.3125 C55.52682151 46.25467088 64.09062512 34.10576887 69 19 C70.2443499 14.04688038 71.15391284 9.03525044 72 4 C73.65 4.66 75.3 5.32 77 6 C76.3434464 22.67646132 69.56940735 37.9428436 58 50 C41.95728144 64.22439035 25.5621865 68.00608533 4.78613281 67.1953125 C-6.043415 66.43614336 -15.61202025 62.24468143 -25 57 C-26.01341467 38.73038551 -20.80924988 20.5478774 -8.60961914 6.6159668 C-2.5314058 0 -2.5314058 0 0 0 Z " fill="#FFFFFF" transform="translate(34,68)"/>
<path d="M0 0 C6.62280888 5.61032727 11.68853938 11.80034966 15.7734375 19.48828125 C16.24394531 20.37257812 16.71445313 21.256875 17.19921875 22.16796875 C22.83694593 33.64298867 24.2868756 44.80445858 23.7734375 57.48828125 C11.09759816 64.56975574 -0.55053144 67.81660752 -14.9765625 67.92578125 C-15.92249268 67.93593262 -16.86842285 67.94608398 -17.84301758 67.95654297 C-24.67809134 67.87207856 -30.72518261 66.56041848 -37.2265625 64.48828125 C-37.2265625 63.82828125 -37.2265625 63.16828125 -37.2265625 62.48828125 C-33.55333406 60.03946229 -31.84929919 60.67541134 -27.62890625 61.18359375 C-12.61099257 62.52848154 1.29027134 61.97730206 15.03125 55.2578125 C16.7734375 54.48828125 16.7734375 54.48828125 18.7734375 54.48828125 C16.40338557 36.06738982 11.97785024 17.7881473 -3.2265625 5.48828125 C-16.23410899 -3.95171012 -30.07547412 -8.80852147 -46.2265625 -7.51171875 C-54.40029879 -6.18869713 -62.35740838 -4.06828725 -70.2265625 -1.51171875 C-70.2265625 -3.49171875 -70.2265625 -5.47171875 -70.2265625 -7.51171875 C-46.63660986 -16.91119698 -20.48868147 -16.42189485 0 0 Z " fill="#FFFFFF" transform="translate(116.2265625,67.51171875)"/>
</svg>
